<?xml version="1.0" standalone="no"?>
<!DOCTYPE svg PUBLIC "-//W3C//DTD SVG 1.1//EN" "http://www.w3.org/Graphics/SVG/1.1/DTD/svg11.dtd" >
<svg xmlns="http://www.w3.org/2000/svg">
	<g data-item-type="text" data-item="Business" id="logo__item--business" class="logo__item">
        <g class="logo__item__inner" transform="translate(574.9609375 381.5844476858265) scale(1 1) rotate(0 0 0)">
            <text data-part-id="logo__item--business__0" dy="0.5ex" dominant-baseline="text-after-edge" alignment-baseline="text-after-edge" font-family="Montserrat--bold--normal" font-size="32px" fill="#6D6454" letter-spacing="0" font-weight="normal" font-style="normal" data-font-family="Montserrat" data-font-weight="bold" data-font-style="normal" data-ttf-url="/builder_assets/fontsttf/font-montserrat-bold-normal.ttf">SwiftPoll</text>
        </g>
    </g>
    <g data-item-type="image" data-item="Image" data-logo-item="" id="logo__item--logo_0" class="logo__item">
	    <g class="logo__item__inner" transform="translate(579.9638379492449 227) scale(1.3360202148078155 1.3360202148078155) rotate(0 0 0)">
	        
			<g>
				<path fill="#6D6454" d="M38.586,32.78c2.776,2.16,4.686,5.101,5.953,8.485c0.798-0.452,1.578-1.007,2.395-1.319   c0.677-0.26,1.362-0.356,2.047-0.521c0.33-5.44,2.013-10.272,5.518-13.743c-0.052-0.035-0.068-0.087-0.121-0.14   c-1.162-1.084-2.377-1.961-3.653-2.628c-1.257-0.677-2.576-1.137-3.964-1.396l-1.024-0.209l0.244-1.006   c0.043-0.173,0.078-0.355,0.104-0.555v-0.096l0.008-0.147h0.01v-0.008V19.47c0.034-0.711-0.113-1.397-0.382-2.004   c-0.192-0.408-0.435-0.781-0.737-1.119c-0.738-0.815-1.796-1.362-2.977-1.432h-0.034l-0.036-0.008   c-1.18-0.052-2.291,0.381-3.115,1.127c-0.824,0.729-1.362,1.787-1.432,2.977v0.025c-0.035,0.694,0.087,1.336,0.331,1.926   c0.042,0.104,0.103,0.226,0.164,0.347c0.061,0.105,0.113,0.209,0.2,0.331v0.017l0.556,0.851l-0.868,0.538   c-0.035,0.017-0.138,0.096-0.286,0.191c-0.079,0.052-0.183,0.121-0.304,0.208l0,0c-1.415,1.006-2.412,2.083-3.002,3.271v-0.009   c-0.113,0.226-0.217,0.435-0.295,0.686c-0.087,0.216-0.147,0.459-0.208,0.685v0.017c-0.156,0.66-0.087,1.371,0,2.083   c0.287,0.104,0.572,0.174,0.859,0.295C36.036,31.078,37.389,31.859,38.586,32.78z" data-part-id="logo__item--logo_0__0"></path>
				<path fill="#6D6454" d="M51.653,35.955c0.746-1.284,1.892-2.273,3.245-2.829c0.442-0.165,0.901-0.295,1.388-0.373   c0.469-0.078,0.973-0.113,1.476-0.078l0,0h0.025h0.026c1.795,0.139,3.366,0.98,4.459,2.238c1.103,1.25,1.719,2.916,1.605,4.703   v0.035c-0.069,1.032-0.374,1.978-0.858,2.829l-0.087,0.139c0.851,0.772,1.509,1.571,2.064,2.395c0.876-0.33,1.752-0.677,2.75-0.833   c1.346-0.217,2.647-0.321,3.923-0.295c0.529,0,1.04,0.043,1.553,0.087c1.397,0.139,2.741,0.452,4.025,0.902   c0.069-0.052,0.147-0.121,0.217-0.174l0.009-0.017l0,0l0.018-0.008v-0.009c0.729-1.241,1.856-2.048,3.089-2.612   c0.052-0.051,0.147-0.13,0.19-0.182l0.018-0.018c1.128-1.05,1.996-2.135,2.586-3.254c0.572-1.084,0.902-2.195,0.972-3.332v-0.025   c0.018-0.313,0.018-0.643-0.009-0.964c-0.026-0.32-0.061-0.65-0.13-0.963c-0.312-1.7-1.163-3.436-2.567-5.197l-0.01-0.009   l-0.077-0.104l-0.087-0.095h0.008c-0.129-0.148-0.269-0.312-0.442-0.503l-0.659-0.755l0.746-0.659l0,0l0.008-0.009   c0.14-0.112,0.27-0.234,0.382-0.356c0.113-0.121,0.227-0.242,0.34-0.363c0.545-0.677,0.953-1.475,1.18-2.387v-0.009   c0.364-1.562,0.052-3.141-0.729-4.425c-0.781-1.266-2.057-2.238-3.635-2.603h-0.01l0,0c-1.579-0.373-3.148-0.078-4.424,0.711   c-1.267,0.79-2.238,2.065-2.621,3.627v0.009v0.025l-0.034,0.174l-0.026,0.13c-0.044,0.269-0.078,0.512-0.078,0.738l-0.052,1.049   l-1.042-0.095c-0.919-0.087-1.839-0.104-2.758-0.043c-0.903,0.043-1.788,0.165-2.69,0.355c-1.821,0.382-3.661,1.023-5.509,1.952   c-1.198,0.599-2.239,1.318-3.15,2.152c-2.846,2.568-4.304,6.256-4.929,10.403C51.461,36.675,51.479,36.267,51.653,35.955z" data-part-id="logo__item--logo_0__1"></path>
				<path fill="#2dcbd7" d="M53.119,70.531c0.025-3.514,0.355-7.09,1.093-10.42c1.397-6.213,4.27-11.506,8.997-14.213   c-0.442-0.625-1.006-1.25-1.665-1.857c-0.069-0.061-0.165-0.14-0.295-0.244c-0.104-0.087-0.2-0.172-0.277-0.242l-0.789-0.643   l0.65-0.781l0.008-0.008c0.079-0.096,0.166-0.2,0.234-0.304h0.008c0.079-0.121,0.148-0.225,0.2-0.33   c0.348-0.59,0.556-1.25,0.599-1.961l0.01-0.034c0.068-1.25-0.348-2.413-1.119-3.281c-0.756-0.867-1.849-1.448-3.09-1.543h-0.026   h-0.034c-0.348-0.017-0.694-0.009-1.024,0.051c-0.329,0.053-0.65,0.14-0.954,0.261c-1.569,0.643-2.724,2.126-2.846,3.922v0.051   v0.121l-0.009,0.113c0,0.174,0.009,0.356,0.035,0.547l0.121,1.042l-1.05,0.069l-0.242,0.018c-1.372,0.121-2.708,0.433-4.009,0.937   c-0.868,0.329-1.691,0.902-2.534,1.405c0.938,3.211,1.441,6.698,1.423,10.376c-0.035,5.555-1.058,11.367-2.568,16.781   c2.257,0.139,4.564,0.244,6.951,0.244V70.6h0.008v0.01C51.671,70.609,52.382,70.549,53.119,70.531z" data-part-id="logo__item--logo_0__2"></path>
				<path fill="#2dcbd7" d="M50.924,73.367L50.924,73.367h-0.008c-2.161,0-4.226-0.113-6.309-0.199c0.938,1.613,1.91,3.166,2.916,4.564   c1.388,1.898,2.793,3.549,4.13,4.832l0.034,0.035c0.095-0.521,0.191-1.111,0.295-1.752c0.312-1.945,0.729-4.391,1.249-6.959   c-0.017-0.191-0.017-0.4-0.017-0.59C52.434,73.299,51.705,73.367,50.924,73.367z" data-part-id="logo__item--logo_0__3"></path>
				<path fill="#6D6454" d="M34.126,82.93c0.434,1.041,0.833,1.961,1.163,2.723c1.466-2.168,2.915-4.979,4.216-8.172   c0.574-1.406,1.093-2.934,1.596-4.461c-4.338-0.295-8.363-0.814-12.146-1.457C31.012,75.658,32.791,79.805,34.126,82.93z" data-part-id="logo__item--logo_0__4"></path>
				<path fill="#6D6454" d="M12.21,52.883l0.026,0.008c0.642,0.539,1.501,1.18,2.56,1.928c1.067,0.754,2.343,1.613,3.8,2.584   c2.69,1.779,5.24,5.119,7.548,8.973c0.234,0.398,0.451,0.832,0.686,1.25c4.364,1.213,9.449,2.115,15.123,2.584   c1.51-5.361,2.551-11.141,2.578-16.625c0.043-7.937-1.917-15.165-7.167-19.217c-1.05-0.806-2.239-1.5-3.584-2.056   c-2.056-0.834-4.086-1.389-6.09-1.649c-0.521-0.052-1.042-0.104-1.545-0.13c-1.475-0.078-2.915,0.009-4.355,0.27l-1.024,0.156   l-0.13-1.023c-0.035-0.269-0.078-0.539-0.165-0.815l-0.034-0.157l-0.052-0.156v-0.018c-0.764-2.42-2.846-4.06-5.206-4.39   c-0.451-0.061-0.92-0.087-1.397-0.035c-0.477,0.035-0.963,0.122-1.414,0.278h-0.018c-2.403,0.773-4.043,2.846-4.373,5.197   c-0.061,0.461-0.087,0.929-0.035,1.397c0.035,0.486,0.122,0.963,0.278,1.422v0.018c0.295,0.954,0.816,1.788,1.475,2.481   c0.139,0.13,0.26,0.26,0.399,0.373s0.278,0.234,0.434,0.338v0.009l0.815,0.598l-0.607,0.798c-0.139,0.191-0.278,0.382-0.425,0.59   l-0.078,0.113l0,0l-0.086,0.121v0.009c-1.371,2.03-2.152,3.974-2.343,5.831c-0.035,0.364-0.052,0.729-0.052,1.076   c0.017,0.33,0.034,0.685,0.086,1.023v0.018c0.156,1.232,0.599,2.403,1.319,3.523C9.885,50.73,10.909,51.832,12.21,52.883z" data-part-id="logo__item--logo_0__5"></path>
				<path fill="#6D6454" d="M55.817,79.84c0.417,2.516,0.989,4.789,1.665,6.674c0.348-0.461,0.729-1.016,1.164-1.605   c2.568-3.559,6.48-8.852,10.532-12.721c-4.338,0.572-9.057,0.902-13.985,1.041C55.297,75.52,55.47,77.775,55.817,79.84z" data-part-id="logo__item--logo_0__6"></path>
				<path fill="#6D6454" d="M79.209,45.672v0.017l-0.077,0.139l-0.061,0.104l0,0c-0.087,0.182-0.174,0.365-0.244,0.573l-0.364,0.98   l-0.954-0.407c-1.433-0.59-2.933-0.955-4.494-1.12c-0.434-0.043-0.886-0.079-1.345-0.079c-1.163-0.035-2.36,0.07-3.602,0.27   c-1.111,0.191-2.134,0.511-3.071,0.937c-4.72,2.178-7.479,7.367-8.832,13.449c-0.712,3.166-1.042,6.568-1.059,9.936   c8.85-0.34,16.84-1.633,22.801-3.662c0.487-0.166,0.851-0.365,1.302-0.529c0.651-0.27,1.293-0.547,1.753-0.781l0.017-0.008   c1.189-0.574,2.152-1.225,2.916-1.971c0.711-0.719,1.249-1.535,1.596-2.42v-0.018c0.105-0.277,0.184-0.539,0.244-0.781   c0.051-0.242,0.104-0.504,0.138-0.799c0.166-1.439-0.087-3.045-0.771-4.814l-0.044-0.113l-0.035-0.104   c-0.086-0.174-0.155-0.355-0.224-0.512l-0.418-0.93l0.937-0.398c0.147-0.07,0.279-0.131,0.374-0.182l-0.008-0.01   c0.138-0.068,0.26-0.139,0.363-0.207c0.607-0.4,1.146-0.938,1.528-1.596v-0.01l0.016-0.01v0.01   c0.669-1.154,0.816-2.474,0.504-3.671c-0.304-1.197-1.075-2.29-2.229-2.967h-0.009v-0.017v0.017   c-1.154-0.685-2.464-0.833-3.679-0.52C80.979,43.764,79.903,44.536,79.209,45.672z" data-part-id="logo__item--logo_0__7"></path>
				<path fill="#2dc5d7" d="M95.824,58.93c0-1.77-1.257-3.488-3.515-5.084c-0.45-0.312-0.953-0.625-1.475-0.938   c-0.398-0.225-0.807-0.441-1.249-0.658c-0.329,0.555-0.729,1.127-1.214,1.578c-0.07,0.051-0.14,0.121-0.208,0.174   c0.382,0.434,0.692,0.867,0.953,1.318c0.053,0.104,0.14,0.244,0.191,0.383c0.391,0.771,0.59,1.578,0.59,2.395v0.016   c0,3.854-4.442,7.307-11.626,9.736c-7.011,2.395-16.676,3.869-27.349,3.869h-0.008c-10.664,0-20.347-1.475-27.34-3.869   c-7.184-2.43-11.626-5.883-11.626-9.752H11.94c0-0.555,0.096-1.102,0.27-1.65c0.035-0.068,0.052-0.137,0.087-0.207   c-0.469-0.363-1.016-0.816-1.527-1.25c-0.469-0.406-0.92-0.814-1.258-1.127c-0.894,0.633-1.64,1.283-2.204,1.953   c-0.113,0.146-0.226,0.285-0.338,0.441c-0.625,0.867-0.955,1.762-0.955,2.672c0,3.559,4.946,6.846,12.928,9.285   c8.173,2.498,19.479,4.043,31.974,4.043h0.008l0,0c12.494,0,23.809-1.545,31.981-4.043c7.982-2.439,12.919-5.727,12.928-9.285   H95.824z" data-part-id="logo__item--logo_0__8"></path>
			</g>
	    </g>
	</g>
</svg>